<svg xmlns="http://www.w3.org/2000/svg" width="780" height="440" viewBox="0 0 780 440" fill="none"><rect width="780" height="440" fill="url(#paint0_linear_2203_452)"></rect><path d="M350.25 242.25C329.85 247.25 314.417 261.833 309.25 268.5L206.75 166C220.75 151 245.5 126 296.5 107.75C324.977 97.5597 369.667 93.5833 390.75 92.75V236.25C385.75 236.167 370.65 237.25 350.25 242.25Z" fill="#7DEAD5"></path><path d="M441.187 247.375C422.755 237.305 399.062 237.063 390.5 236.063L390.5 93.5C410.953 91.8713 440 95 492.092 110.561C517.714 118.215 555.25 143.938 572.25 165.125L469.937 268.563C466.303 265.128 459.619 257.446 441.187 247.375Z" fill="#08C4B2"></path><path d="M278.875 347.125H136.375C138.25 308.625 143.375 284.875 159 241.375C171.5 206.575 196.542 176.542 207.5 165.875C239.583 198.458 304.85 264.7 309.25 269C301.125 278.625 296 286.375 287.875 304.5C281.375 319 279.167 338.958 278.875 347.125Z" fill="#CCF1EA"></path><path d="M501 346.875H643.5C641.625 308.375 636.5 284.625 620.875 241.125C608.375 206.325 583.333 176.292 572.375 165.625C540.292 198.208 475.025 264.45 470.625 268.75C478.75 278.375 483.875 286.125 492 304.25C498.5 318.75 500.708 338.708 501 346.875Z" fill="#59CB59"></path><path d="M279 346.875H136.5C137.333 262.292 189.15 93.125 389.75 93.125C590.35 93.125 642.5 262.292 643.5 346.875H500.5C499.667 309.958 476.35 236.125 389.75 236.125C303.15 236.125 279.833 309.958 279 346.875Z" stroke="#040404" stroke-width="1.5"></path><rect x="418.151" y="263.248" width="5.625" height="76.375" rx="2.8125" transform="rotate(23.2801 418.151 263.248)" fill="#006B40" stroke="#040404" stroke-width="1.5" stroke-linecap="round" stroke-linejoin="round"></rect><path d="M207.304 165.625L309.304 268.625M390.304 93.125V236M470.304 268.625L571.804 165.625" stroke="#040404" stroke-width="1.5" stroke-linecap="round" stroke-linejoin="round"></path><path d="M405.804 345.25H374.179C374.72 339.875 378.704 329.75 390.304 329.75C401.904 329.75 405.47 340.083 405.804 345.25Z" fill="#006B40" stroke="#040404" stroke-width="1.5" stroke-linecap="round" stroke-linejoin="round"></path><path d="M557.062 320.437C580.569 320.437 599.624 301.381 599.624 277.875C599.624 254.369 580.569 235.313 557.062 235.313C533.556 235.313 514.501 254.369 514.501 277.875C514.501 301.381 533.556 320.437 557.062 320.437Z" fill="#FFE16E" stroke="#040404" stroke-width="1.5" stroke-linecap="round" stroke-linejoin="round"></path><path d="M534.35 270.377C534.35 270.377 535.509 263.556 541.17 263.556C546.832 263.556 547.619 270.005 547.619 270.005" stroke="#040404" stroke-width="1.5" stroke-linecap="round" stroke-linejoin="round"></path><path d="M563.968 270.377C563.968 270.377 565.126 263.556 570.788 263.556C576.45 263.556 577.237 270.005 577.237 270.005" stroke="#040404" stroke-width="1.5" stroke-linecap="round" stroke-linejoin="round"></path><path d="M538.197 288.455H575.14C575.14 288.455 572.255 301.178 558.024 301.353C540.317 301.549 538.219 288.455 538.219 288.455H538.197Z" fill="white" stroke="#040404" stroke-width="1.5" stroke-linecap="round" stroke-linejoin="round"></path><path d="M458.438 223.437C481.945 223.437 501 204.381 501 180.875C501 157.369 481.945 138.313 458.438 138.313C434.932 138.313 415.877 157.369 415.877 180.875C415.877 204.381 434.932 223.437 458.438 223.437Z" fill="#FFE16E" stroke="#040404" stroke-width="1.5" stroke-linecap="round" stroke-linejoin="round"></path><path d="M440.38 197.598H476.515" stroke="#040404" stroke-width="1.5" stroke-linecap="round" stroke-linejoin="round"></path><path d="M443.747 175.06C445.123 175.06 446.239 173.504 446.239 171.584C446.239 169.665 445.123 168.109 443.747 168.109C442.371 168.109 441.255 169.665 441.255 171.584C441.255 173.504 442.371 175.06 443.747 175.06Z" fill="#040404" stroke="#040404" stroke-width="1.5" stroke-linejoin="round"></path><path d="M473.28 175.06C474.656 175.06 475.772 173.504 475.772 171.584C475.772 169.665 474.656 168.109 473.28 168.109C471.903 168.109 470.788 169.665 470.788 171.584C470.788 173.504 471.903 175.06 473.28 175.06Z" fill="#040404" stroke="#040404" stroke-width="1.5" stroke-linejoin="round"></path><path d="M319.507 223.437C343.013 223.437 362.068 204.381 362.068 180.875C362.068 157.369 343.013 138.313 319.507 138.313C296.001 138.313 276.945 157.369 276.945 180.875C276.945 204.381 296.001 223.437 319.507 223.437Z" fill="#FFE16E" stroke="#040404" stroke-width="1.5" stroke-linecap="round" stroke-linejoin="round"></path><path d="M339.703 166.557C339.703 166.557 338.544 173.377 332.882 173.377C327.221 173.377 326.434 166.928 326.434 166.928" stroke="#040404" stroke-width="1.5" stroke-linecap="round" stroke-linejoin="round"></path><path d="M310.063 166.557C310.063 166.557 308.905 173.377 303.243 173.377C297.581 173.377 296.794 166.928 296.794 166.928" stroke="#040404" stroke-width="1.5" stroke-linecap="round" stroke-linejoin="round"></path><path d="M300.641 204.353C300.641 204.353 303.527 191.63 317.758 191.455C335.464 191.258 337.563 204.353 337.563 204.353" stroke="#040404" stroke-width="1.5" stroke-linecap="round" stroke-linejoin="round"></path><path d="M222.812 320.437C246.319 320.437 265.374 301.381 265.374 277.875C265.374 254.369 246.319 235.313 222.812 235.313C199.306 235.313 180.251 254.369 180.251 277.875C180.251 301.381 199.306 320.437 222.812 320.437Z" fill="#FFE16E" stroke="#040404" stroke-width="1.5" stroke-linecap="round" stroke-linejoin="round"></path><path d="M199.109 255.5L214.109 261.25" stroke="#040404" stroke-width="1.5" stroke-linecap="round"></path><path d="M245.085 255.5L230.085 261.25" stroke="#040404" stroke-width="1.5" stroke-linecap="round"></path><path d="M208.053 272.06C209.429 272.06 210.545 270.504 210.545 268.584C210.545 266.665 209.429 265.109 208.053 265.109C206.677 265.109 205.561 266.665 205.561 268.584C205.561 270.504 206.677 272.06 208.053 272.06Z" fill="#040404" stroke="#040404" stroke-width="1.5" stroke-linejoin="round"></path><path d="M237.585 272.06C238.962 272.06 240.077 270.504 240.077 268.584C240.077 266.665 238.962 265.109 237.585 265.109C236.209 265.109 235.093 266.665 235.093 268.584C235.093 270.504 236.209 272.06 237.585 272.06Z" fill="#040404" stroke="#040404" stroke-width="1.5" stroke-linejoin="round"></path><path d="M203.947 301.353C203.947 301.353 206.832 288.63 221.063 288.455C238.77 288.258 240.869 301.353 240.869 301.353" stroke="#040404" stroke-width="1.5" stroke-linecap="round" stroke-linejoin="round"></path><defs><linearGradient id="paint0_linear_2203_452" x1="526.528" y1="-15.4419" x2="112.647" y2="698.265" gradientUnits="userSpaceOnUse"><stop stop-color="#EBF9EB"></stop><stop offset="0.83" stop-color="#98E58E"></stop></linearGradient></defs></svg>